PathFileType	4	(X/Y/Z)	/Users/itak/Documents/Research/Walk-IL/dataset/trc/00416_00012.trc
DataRate	CameraRate	NumFrames	NumMarkers	Units	OrigDataRate	OrigDataStartFrame	OrigNumFrames
100.000000	100.000000	4	56	mm	100.000000	371	595
Frame#	Time	RPSI			LPSI			L3			STRN			T10			C7			CLAV			RBAK			LBAK			LSHO			LUPA			LAEL			LAOL			LWTS			LWPS			LFRA			LHPS			RSHO			RUPA			RAEL			RAOL			RWTS			RWPS			RFRA			RIFD			RHTS			RHPS			RBHD			LFHD			RFHD			LBHD			LHIP			RASI			LASI			LKNE			LTHI			LANK			LTIP			LTOE			LMT1			LMT5			LHEE			RKNE			RTHI			RANK			RTIP			RTOE			RMT1			RMT5			RHEE			LIFD			LHTS			RHIP			*53			*54			*55			
		X1	Y1	Z1	X2	Y2	Z2	X3	Y3	Z3	X4	Y4	Z4	X5	Y5	Z5	X6	Y6	Z6	X7	Y7	Z7	X8	Y8	Z8	X9	Y9	Z9	X10	Y10	Z10	X11	Y11	Z11	X12	Y12	Z12	X13	Y13	Z13	X14	Y14	Z14	X15	Y15	Z15	X16	Y16	Z16	X17	Y17	Z17	X18	Y18	Z18	X19	Y19	Z19	X20	Y20	Z20	X21	Y21	Z21	X22	Y22	Z22	X23	Y23	Z23	X24	Y24	Z24	X25	Y25	Z25	X26	Y26	Z26	X27	Y27	Z27	X28	Y28	Z28	X29	Y29	Z29	X30	Y30	Z30	X31	Y31	Z31	X32	Y32	Z32	X33	Y33	Z33	X34	Y34	Z34	X35	Y35	Z35	X36	Y36	Z36	X37	Y37	Z37	X38	Y38	Z38	X39	Y39	Z39	X40	Y40	Z40	X41	Y41	Z41	X42	Y42	Z42	X43	Y43	Z43	X44	Y44	Z44	X45	Y45	Z45	X46	Y46	Z46	X47	Y47	Z47	X48	Y48	Z48	X49	Y49	Z49	X50	Y50	Z50	X51	Y51	Z51	X52	Y52	Z52	X53	Y53	Z53	X54	Y54	Z54	X55	Y55	Z55	X56	Y56	Z56	

372	3.71	-52.96943283081055	965.2416381835938	59.06033706665039	67.34159851074219	948.8306274414062	3.517535209655762	9.123433113098145	1046.293701171875	34.13992309570312	96.76013946533203	1196.722412109375	253.2063598632812	15.22868061065674	1146.35302734375	20.86364555358887	37.98061370849609	1394.380126953125	52.37005996704102	78.11391448974609	1315.180297851562	201.7236175537109	-38.38969802856445	1248.052856445312	28.41404342651367	130.9366149902344	1361.110229492188	7.050638198852539	205.0157165527344	1375.266357421875	75.44588470458984	259.1607971191406	1260.079467773438	23.11195755004883	282.7474365234375	1063.59423828125	15.35840797424316	204.6376037597656	1046.091918945312	-15.90344142913818	274.4917907714844	839.1856689453125	92.76351928710938	311.0403442382812	833.705810546875	18.81473731994629	295.1224975585938	958.6652221679688	15.36308574676514	305.6537780761719	746.5802612304688	24.38905906677246	-95.613525390625	1371.92333984375	149.7171020507812	-155.88720703125	1308.877685546875	150.2237854003906	-209.4988861083984	1051.064086914062	162.248779296875	-123.7092132568359	1034.197021484375	122.4680252075195	-147.0068206787109	866.4237670898438	320.5803833007812	-215.5070953369141	848.66015625	300.2814636230469	-217.7598266601562	991.0252685546875	201.3738098144531	-155.400390625	698.7781982421875	371.4313354492188	-162.5460815429688	771.1328735351562	369.1813659667969	-213.8588104248047	765.960205078125	326.653076171875	-42.13626098632812	1572.936889648438	110.2350997924805	119.6468276977539	1588.372192382812	221.2299041748047	0.3562158644199371	1583.501708984375	237.0893096923828	111.9084014892578	1577.901611328125	73.01534271240234	204.5716552734375	941.0440673828125	43.10665130615234	-23.10264205932617	957.3136596679688	283.4331359863281	209.6564483642578	944.8067016601562	166.0692291259766	280.1943054199219	483.3079528808594	226.0696258544922	266.6521911621094	607.7622680664062	180.3919677734375	181.6457977294922	152.1241607666016	-71.12419891357422	244.7679290771484	309.1922302246094	72.87532043457031	217.4654541015625	48.07350158691406	114.6017913818359	155.9603424072266	77.04738616943359	70.27316284179688	244.9984893798828	84.22896575927734	13.44504451751709	115.735107421875	167.5455322265625	-74.4818115234375	-5.397326946258545	457.85546875	238.0852355957031	-66.37930297851562	716.52685546875	266.8313903808594	47.1100959777832	49.47468948364258	158.1053466796875	31.11633491516113	333.333984375	236.1474456787109	178.8582611083984	34.43852996826172	296.1217041015625	175.1680450439453	37.33835983276367	212.8882141113281	77.92233276367188	43.58446502685547	235.2366180419922	66.74757385253906	37.57101058959961	70.43111419677734	270.9793090820312	660.1321411132812	65.89644622802734	294.0997924804688	740.4225463867188	87.3094482421875	-129.0253143310547	945.3309326171875	177.6352386474609	nan	nan	nan	nan	nan	nan	nan	nan	nan	
373	3.72	-47.87272262573242	965.618408203125	64.61460113525391	73.21489715576172	949.1434326171875	10.68305683135986	14.16203022003174	1046.769653320312	40.16315460205078	99.52593994140625	1197.1474609375	261.0375366210938	20.21918869018555	1147.023803710938	27.53577613830566	42.87809371948242	1395.074951171875	59.95264053344727	81.66706085205078	1315.649291992188	209.4738922119141	-33.69856262207031	1248.912109375	35.28420257568359	136.0142364501953	1361.586669921875	15.36747455596924	209.6847991943359	1375.439819335938	84.23603820800781	263.4986572265625	1260.46630859375	31.28010940551758	285.8926086425781	1063.94091796875	21.32621955871582	207.7109069824219	1047.267578125	-10.26064395904541	275.9525146484375	838.8663330078125	96.66911315917969	312.7538146972656	833.7686767578125	22.82340812683105	297.6445617675781	958.910400390625	20.40328598022461	306.5729064941406	746.5847778320312	27.63105201721191	-91.53284454345703	1372.882202148438	156.1745452880859	-152.2323303222656	1310.062133789062	156.5216064453125	-207.1122589111328	1052.450805664062	171.1952056884766	-121.3697280883789	1034.639892578125	131.5023193359375	-143.3337554931641	873.518798828125	335.1530151367188	-211.8125762939453	854.59521484375	315.7135925292969	-215.128662109375	993.5313110351562	211.9271697998047	-150.411376953125	707.8497314453125	392.3295288085938	-157.8822937011719	780.07763671875	387.4112548828125	-209.539306640625	772.9302368164062	345.1582946777344	-37.27662658691406	1573.823364257812	117.7377014160156	124.0860824584961	1588.617309570312	229.4654693603516	4.569996356964111	1584.062255859375	244.6110076904297	116.9610366821289	1578.2939453125	81.20907592773438	210.0716247558594	941.8862915039062	53.06774139404297	-21.28661346435547	957.5476684570312	289.5470886230469	213.0354766845703	945.8934936523438	175.3648071289062	284.2927551269531	487.2215881347656	243.1215972900391	271.2334899902344	610.367919921875	194.8363800048828	195.8458557128906	142.7745971679688	-42.74797821044922	253.9290466308594	307.0828247070312	95.41226196289062	233.2503204345703	48.95498657226562	148.0256195068359	171.1969451904297	73.77130126953125	101.8324432373047	260.5936584472656	80.99358367919922	45.49847030639648	129.6262817382812	156.3082275390625	-47.52777862548828	-4.914566040039062	457.6066284179688	239.6659240722656	-64.49536895751953	716.3430786132812	270.2762756347656	47.23925018310547	49.51506042480469	158.107177734375	31.5733699798584	332.9486083984375	237.3389892578125	178.8531646728516	34.39889526367188	296.1629943847656	175.4209289550781	37.47396469116211	212.9504852294922	78.02000427246094	43.58797073364258	235.241943359375	66.84078979492188	37.71229553222656	70.35080718994141	270.9261779785156	660.1109619140625	68.34152221679688	294.751708984375	740.0340576171875	90.46491241455078	-124.6658401489258	945.8894653320312	183.1263427734375	nan	nan	nan	nan	nan	nan	nan	nan	nan	
374	3.73	-42.78984069824219	965.8991088867188	70.19011688232422	79.05931091308594	949.3692626953125	17.90113067626953	19.18960952758789	1047.109252929688	46.26034545898438	102.2339553833008	1197.422973632812	268.8442687988281	25.21831893920898	1147.551025390625	34.17916488647461	47.70652770996094	1395.643310546875	67.52275848388672	85.13155364990234	1315.950927734375	217.1900482177734	-29.04413032531738	1249.64404296875	42.1069450378418	141.0408325195312	1361.956909179688	23.66081809997559	214.2613372802734	1375.47021484375	93.02535247802734	267.7588806152344	1260.7197265625	39.4313850402832	288.9781799316406	1064.186401367188	27.2456111907959	210.7050323486328	1048.330078125	-4.586710453033447	277.5066528320312	838.5668334960938	100.7084121704102	314.5082702636719	833.7797241210938	26.93812561035156	300.1471862792969	959.087158203125	25.43792533874512	307.6525268554688	746.55419921875	31.1311206817627	-87.53812408447266	1373.682861328125	162.5963287353516	-148.6629943847656	1311.069213867188	162.7154998779297	-204.7240142822266	1053.646118164062	179.9423828125	-119.0365371704102	1034.956665039062	140.4374084472656	-139.8240966796875	880.5775756835938	349.3893127441406	-208.2162933349609	860.4926147460938	330.7066650390625	-212.5603332519531	995.8649291992188	222.2063903808594	-145.4993591308594	717.1004028320312	412.6946105957031	-153.3706665039062	789.0924682617188	405.1309204101562	-205.3069305419922	779.9578857421875	363.1499328613281	-32.4410285949707	1574.596435546875	125.2205047607422	128.4951629638672	1588.701782226562	237.6926879882812	8.796330451965332	1584.523681640625	252.1574096679688	121.9704742431641	1578.531860351562	89.41041564941406	215.5389251708984	942.49462890625	62.98708343505859	-19.3751392364502	957.6610107421875	295.6025085449219	216.4666442871094	946.825927734375	184.6244964599609	287.9247741699219	490.8793640136719	259.5885925292969	275.3878479003906	612.725830078125	208.8764190673828	209.7472076416016	133.1455383300781	-13.57506084442139	262.7513427734375	304.6149291992188	118.0025634765625	248.1349945068359	49.90962600708008	181.8416290283203	185.7389526367188	70.60697174072266	133.9862060546875	275.5370178222656	77.61002349853516	78.11408233642578	143.3396148681641	144.7361602783203	-19.60522270202637	-4.299361228942871	457.3507995605469	241.4323883056641	-62.44831085205078	716.1785278320312	273.8331604003906	47.37678527832031	49.55727386474609	158.1212158203125	32.1211051940918	332.5462646484375	238.6495971679688	178.8492584228516	34.36518478393555	296.2062377929688	175.7280426025391	37.67948913574219	213.024169921875	78.09633636474609	43.58790588378906	235.2453308105469	66.67527770996094	37.99847412109375	70.20309448242188	271.2546081542969	660.1018676757812	71.25205230712891	295.6882934570312	739.7198486328125	93.90039825439453	-120.1300888061523	946.43505859375	188.7371368408203	nan	nan	nan	nan	nan	nan	nan	nan	nan	
375	3.74	-37.70649719238281	966.0758056640625	75.79020690917969	84.88501739501953	949.4963989257812	25.18094253540039	24.23958015441895	1047.30078125	52.43472290039062	104.8979339599609	1197.564208984375	276.6301879882812	30.22095108032227	1147.936401367188	40.78116989135742	52.4671516418457	1396.076049804688	75.07543182373047	88.50643920898438	1316.101196289062	224.8688659667969	-24.41855621337891	1250.240844726562	48.87532806396484	146.0129241943359	1362.214721679688	31.93025016784668	218.7522125244141	1375.366821289062	101.8078002929688	271.9568176269531	1260.847045898438	47.57851791381836	292.0093994140625	1064.343505859375	33.15435409545898	213.6217956542969	1049.283325195312	1.16961145401001	279.1626281738281	838.267822265625	104.8974609375	316.3021545410156	833.7372436523438	31.17203140258789	302.6369323730469	959.1978759765625	30.49532508850098	308.8962097167969	746.4891967773438	34.87466812133789	-83.62010192871094	1374.32763671875	168.9780120849609	-145.1587829589844	1311.890625	168.8056945800781	-202.3154144287109	1054.643798828125	188.5290222167969	-116.6878356933594	1035.1318359375	149.291015625	-136.4566040039062	887.5346069335938	363.2640075683594	-204.7083892822266	866.2960205078125	345.2553405761719	-210.0335998535156	998.013916015625	232.2396545410156	-140.6954040527344	726.4482421875	432.4917907714844	-149.0611419677734	798.0941772460938	422.3007507324219	-201.1651916503906	786.9783935546875	380.6126403808594	-27.62710380554199	1575.251220703125	132.6824340820312	132.8663482666016	1588.622802734375	245.9125366210938	13.03234386444092	1584.87841796875	259.7301635742188	126.9396133422852	1578.615478515625	97.61811828613281	220.9210815429688	942.86669921875	72.72623443603516	-17.40607643127441	957.669189453125	301.6144104003906	219.9127349853516	947.5928344726562	193.8690643310547	291.1499328613281	494.2301330566406	275.4428100585938	279.1533203125	614.8062744140625	222.4808502197266	223.2912750244141	123.3888397216797	16.37055969238281	271.2334594726562	301.8351745605469	140.6363372802734	262.0948181152344	50.99703216552734	215.9684753417969	199.5201721191406	67.61483764648438	166.6520843505859	289.7782897949219	74.20091247558594	111.2403030395508	156.7770538330078	132.9712677001953	9.3140869140625	-3.502053499221802	457.0827026367188	243.4312133789062	-60.24435043334961	716.0120849609375	277.5331726074219	47.52643203735352	49.60410308837891	158.1485748291016	32.78335952758789	332.1319580078125	240.0944061279297	178.8500213623047	34.33828735351562	296.2532653808594	176.0484313964844	37.93032455444336	213.0890808105469	78.14793395996094	43.5869140625	235.2415618896484	66.32853698730469	38.40050506591797	70.01652526855469	271.975341796875	660.07275390625	74.57389831542969	296.896484375	739.4437866210938	97.59823608398438	-115.5983200073242	946.8696899414062	194.2649993896484	nan	nan	nan	nan	nan	nan	nan	nan	nan	
